<svg xmlns="http://www.w3.org/2000/svg" viewBox="0 0 1200 760" role="img" aria-labelledby="title desc">
  <title id="title">Pamplia admin dashboard preview</title>
  <desc id="desc">A stylized analytics dashboard with KPI cards and revenue trend.</desc>
  <rect width="1200" height="760" fill="#f4f7fb"/>
  <rect x="92" y="48" width="1016" height="664" rx="24" fill="#ffffff" stroke="#d6deea" stroke-width="3"/>
  <rect x="92" y="48" width="1016" height="60" rx="24" fill="#1f2937"/>
  <text x="454" y="87" font-family="Verdana, sans-serif" font-size="22" fill="#f3f4f6">Pamplia Admin Dashboard</text>

  <text x="136" y="164" font-family="Verdana, sans-serif" font-size="30" fill="#111827">Vue business du salon</text>
  <text x="136" y="195" font-family="Verdana, sans-serif" font-size="18" fill="#6b7280">Indicateurs cles, clients actifs et revenus consolides.</text>

  <rect x="136" y="228" width="220" height="118" rx="16" fill="#eef6ff" stroke="#d4e4fb"/>
  <text x="160" y="267" font-family="Verdana, sans-serif" font-size="18" fill="#374151">RDV du jour</text>
  <text x="160" y="319" font-family="Verdana, sans-serif" font-size="52" fill="#1d4ed8">42</text>

  <rect x="376" y="228" width="220" height="118" rx="16" fill="#eefcf3" stroke="#d3f1df"/>
  <text x="400" y="267" font-family="Verdana, sans-serif" font-size="18" fill="#374151">Taux confirmation</text>
  <text x="400" y="319" font-family="Verdana, sans-serif" font-size="52" fill="#15803d">91%</text>

  <rect x="616" y="228" width="220" height="118" rx="16" fill="#fff7ed" stroke="#fde7cf"/>
  <text x="640" y="267" font-family="Verdana, sans-serif" font-size="18" fill="#374151">Nouveaux clients</text>
  <text x="640" y="319" font-family="Verdana, sans-serif" font-size="52" fill="#c2410c">18</text>

  <rect x="856" y="228" width="220" height="118" rx="16" fill="#f5f3ff" stroke="#e8e0ff"/>
  <text x="880" y="267" font-family="Verdana, sans-serif" font-size="18" fill="#374151">No-show</text>
  <text x="880" y="319" font-family="Verdana, sans-serif" font-size="52" fill="#7c3aed">7%</text>

  <rect x="136" y="374" width="940" height="288" rx="16" fill="#fbfcff" stroke="#d8e0ec"/>
  <text x="166" y="418" font-family="Verdana, sans-serif" font-size="22" fill="#111827">Revenu hebdomadaire (MAD)</text>
  <polyline fill="none" stroke="#0f766e" stroke-width="7" points="180,596 280,560 380,566 480,524 580,516 680,472 780,440 880,418 980,392"/>
  <line x1="180" y1="612" x2="980" y2="612" stroke="#d7dfe9" stroke-width="2"/>
  <text x="182" y="639" font-family="Verdana, sans-serif" font-size="16" fill="#6b7280">S1</text>
  <text x="955" y="639" font-family="Verdana, sans-serif" font-size="16" fill="#6b7280">S9</text>
</svg>
